<?xml version="1.0" standalone="no"?>
<!DOCTYPE svg PUBLIC "-//W3C//DTD SVG 20010904//EN"
 "http://www.w3.org/TR/2001/REC-SVG-20010904/DTD/svg10.dtd">
<svg version="1.0" xmlns="http://www.w3.org/2000/svg"
 width="551.000000pt" height="879.000000pt" viewBox="0 0 551.000000 879.000000"
 preserveAspectRatio="xMidYMid meet">

<g transform="translate(0.000000,879.000000) scale(0.100000,-0.100000)"
fill="#000000" stroke="none">
<path d="M2761 6080 c-40 -54 -79 -104 -86 -110 -10 -8 -38 7 -116 61 -57 39
-112 78 -122 87 -11 10 -21 12 -27 6 -24 -24 -180 -240 -180 -249 1 -10 269
-200 274 -194 1 2 37 50 79 106 42 56 80 104 84 106 5 2 61 -33 127 -79 65
-46 122 -84 126 -84 13 0 192 252 183 260 -4 4 -62 44 -128 90 -66 46 -125 87
-131 91 -7 6 -37 -27 -83 -91z"/>
<path d="M3902 5708 c-45 -117 -89 -234 -99 -261 l-17 -47 66 -68 c87 -89 138
-158 138 -188 0 -50 -122 -143 -293 -224 -289 -135 -640 -207 -1125 -231 -343
-18 -579 7 -771 81 -149 58 -268 158 -318 267 -25 53 -25 61 -20 187 4 94 13
156 30 221 14 50 24 91 23 92 -4 4 -109 -126 -143 -177 -31 -46 -101 -182
-121 -235 -47 -123 -53 -250 -18 -360 96 -302 437 -499 941 -545 372 -34 864
27 1183 146 365 137 616 339 743 599 59 121 79 211 79 353 0 162 -35 300 -116
467 -81 164 -68 170 -162 -77z"/>
</g>
</svg>
